<svg xmlns="http://www.w3.org/2000/svg" viewBox="0 0 92.4 79.4"><g fill="orange" style="isolation:isolate"><path d="m0 46.1 7.7-1c.2 5 1.1 8.3 2.8 10.1 1.6 1.8 3.9 2.7 6.8 2.7 2.1 0 4-.5 5.5-1.4 1.6-1 2.6-2.4 3.2-4 .6-1.7.9-4.4.9-8.1V0h8.5v43.9c0 5.4-.6 9.6-2 12.5a14 14 0 0 1-6.1 6.8 20.4 20.4 0 0 1-10 2.3c-5.6 0-10-1.6-13-4.9-3-3.2-4.4-8-4.3-14.5ZM45.2 50.5l7.8-1.2c.4 3 1.7 5.5 3.7 7.2S61.5 59 65 59s6.3-.8 8-2.2 2.7-3.3 2.7-5.3c0-1.7-.8-3.1-2.3-4.2-1-.7-3.8-1.6-8.1-2.7a73.2 73.2 0 0 1-12-3.8c-2.3-1-4-2.5-5.2-4.4-1.1-1.9-1.7-4-1.7-6.3 0-2 .5-4 1.4-5.7 1-1.8 2.3-3.3 4-4.5a22 22 0 0 1 11.9-3.3c3.5 0 6.8.6 9.5 1.7a13 13 0 0 1 6.2 4.3c1.3 1.8 2.2 4.2 2.7 7.2l-7.8 1a8.4 8.4 0 0 0-3-5.6c-1.7-1.3-4-2-7.1-2-3.7 0-6.3.6-7.8 1.8S54 27.6 54 29.2c0 1 .4 2 1 2.8a7 7 0 0 0 3 2c.8.4 3.2 1 7 2.1 5.6 1.5 9.5 2.7 11.7 3.7 2.3 1 4 2.3 5.3 4.1s1.8 4.1 1.8 6.8-.7 5.1-2.3 7.5a14.9 14.9 0 0 1-6.6 5.4c-3 1.2-6.2 1.9-9.9 1.9-6 0-10.7-1.3-13.8-3.8a17.6 17.6 0 0 1-6.1-11.2Z"/></g><circle cx="77.4" cy="64.4" r="15" fill="#1e90ff"/><path d="M69.3 72.4V54.5h3.5l4.3 12.7.8 2.6 1-2.8L83 54.5h3.2v18h-2.2v-15l-5.2 15h-2.2l-5.2-15.3v15.2h-2.2Z" style="isolation:isolate"/></svg>