<svg xmlns="http://www.w3.org/2000/svg" viewBox="0 0 93.6 65.5"><g fill="orange" style="isolation:isolate"><path d="M13.3 53.1c-2.5 0-4.7-.5-6.6-1.4C2.3 49.2 0 44.7 0 38a25 25 0 0 1 .3-3c.4-.9 1.3-1.2 2.9-1.2 1 0 2 .2 3 .5 1 .4 1.4 1 1.4 1.6l-.1 1.7-.1 1.5c0 2.1.3 3.9.8 5.3.7 1.2 1.4 1.8 2.2 1.8l1.7-.5c.7-.3 1.6-1.9 2.5-4.8.6-2.4.9-5.4.9-9.2a183.6 183.6 0 0 0-1.6-24.5c0-.8.5-1.7 1.5-2.4.5-.3 1.2-.5 1.9-.5s1.5.2 2.3.5l1.1.3a55 55 0 0 1 7.6 4l.9.6-.8 1.6c.5 3.8.7 8.8.8 14.9 0 6.2-.7 11.9-2.1 17.2-1.4 4-3.8 6.7-7.2 8.3a16 16 0 0 1-6.6 1.4Zm18.3-40.7c-.2 0-.5 0-.8-.2s-.6-.6-.6-1 .1-.7.3-1l-.4-.6-.1-.2-.4-.4L28 8a47.6 47.6 0 0 0-7.6-3.9l-2.4-.7C20.4 1.2 22.6 0 24.7 0h.6c1.3.2 2.4 1 3.4 2.3 1 1.4 1.7 2.8 2.3 4.2l1 3.1c.4.2.8.5 1 1v.5l-.2.8c-.2.4-.6.5-1.2.5ZM35.7 23.5l-.6-.1a1 1 0 0 1-.6-.6l-.2-.8c0-.7.4-1.1 1-1.3l1-3.1c1.6-4 3.5-6.2 5.7-6.6h.3c2.2 0 4.5 1.2 7 3.6-1 .2-2.3.5-3.6 1a78 78 0 0 0-8.2 4.7l-.7 1c.2.2.3.4.3.7l-.1.6c-.1.3-.3.5-.6.7l-.7.2Zm12.6 29.8-1.1-.1c-3.2-.4-5.6-1.4-7.3-3a7.1 7.1 0 0 1-2.5-5.3c0-2.3 1.6-3.4 4.7-3.4 2.9 0 4.5 1 4.8 3.1 0 1.8.5 2.6 1.5 2.6.3 0 .7-.1 1-.5.5-.3.8-.9 1-1.8v-.5c0-.8-.3-1.5-1-2.2a26 26 0 0 0-3.4-2.7 10 10 0 0 0-2-1.3 30 30 0 0 1-5.5-4.8 9.7 9.7 0 0 1-2.3-6.8c0-1.6.8-3.2 2.3-4.8l-.4-1 .4-.4 4.2-2.3c3.2-1.8 5.7-2.7 7.3-2.7.8 0 1.4.1 2 .4 1 1 1.5 1.8 1.5 2.5 3.6.6 6.3 2 8 4a9 9 0 0 1 2.2 5.9v.9c-.2 1.3-1.2 2-2.9 2-.8 0-1.7-.3-2.8-.7-1-.4-1.6-1-1.8-2-.4-1.6-1.2-2.7-2.5-3.2a5 5 0 0 0-1.9-.4 3 3 0 0 0-1.3.3c-.4.2-.6.5-.6 1s.2.8.6 1.4c.5.6 1 1.2 1.7 1.7a20 20 0 0 0 2.4 1.7l.8.5c2.9 2 5.1 4.1 6.8 6.1 1.1 1.4 1.7 3 1.7 5 0 3.7-1.6 6.4-4.8 8.2a22.1 22.1 0 0 1-10.8 2.6Z"/></g><circle cx="78.6" cy="50.5" r="15" fill="#1e90ff"/><path d="m84 63.8-.1-.1-.8-5.2-.1-.5a98.5 98.5 0 0 0-.1-10.9l-1 1.7-1 3-.1.2-.2-.1-.1-.3-.4 3h-.4l-.3-2.2-.2.6-.2.1-.2-.1-1.5-4.7v.6c0 4.8-.3 8-.9 10-.1.3-.6.5-1.5.6l-.4 3-.3.2-.3-.2-.7-3.3c-.6-.2-1-.7-1-1.3a83.4 83.4 0 0 0 0-8.4c0-2 0-4.2-.4-6.5 0-.5.4-.9 1-1.1.7-.3 1.4-.4 2-.4h.9c.5 0 .9.2 1.2.6l1.6 2.9 1.5 2.8.3-.6.8-1.6 1-1.7.6-1.4a2 2 0 0 1 1.3-1l1-.2c1 0 1.5.4 1.7 1.2a61.6 61.6 0 0 1 0 11.4 20.8 20.8 0 0 1-.8 5l-.6 2.7-.2.1c-.1 0-.2 0-.3-.2l-.6 2.2-.2.1Zm-9.8-3 .2-1.3a2 2 0 0 1-.5-.1l.3 1.5Zm5.7-8 .2-1.9c-.6 0-1.3-.6-2-1.8l1 3.1.2-1h.2l.2.1.2 1.5Zm.8-1.7.4-1-.5.5.1.5Zm3.4 11.5.4-1.6.2-.2.2.1.1.2.4-1.8a2 2 0 0 1-.7.2h-.4l-.7-.3.5 3.4Z" style="isolation:isolate"/></svg>